<svg width="15" height="13" viewBox="0 0 15 13" fill="none" xmlns="http://www.w3.org/2000/svg">
<mask id="path-1-inside-1_0_32" fill="white">
<path d="M6.04945 8.72809L11.4957 12.5768C12.1172 12.9048 12.5657 12.735 12.7205 12.0249L14.9374 2.03249C15.1644 1.16209 14.5906 0.767321 13.996 1.0255L0.978404 5.82669C0.0898302 6.16759 0.0950105 6.64176 0.816436 6.85304L4.15705 7.85035L11.8909 3.18338C12.256 2.97162 12.5911 3.08547 12.3161 3.31894"/>
</mask>
<path d="M6.04945 8.72809L11.4957 12.5768C12.1172 12.9048 12.5657 12.735 12.7205 12.0249L14.9374 2.03249C15.1644 1.16209 14.5906 0.767321 13.996 1.0255L0.978404 5.82669C0.0898302 6.16759 0.0950105 6.64176 0.816436 6.85304L4.15705 7.85035L11.8909 3.18338C12.256 2.97162 12.5911 3.08547 12.3161 3.31894" fill="#6188FF"/>
<path d="M11.4957 12.5768L10.9186 13.3935L10.9716 13.4309L11.029 13.4612L11.4957 12.5768ZM12.7205 12.0249L11.7443 11.8083L11.7435 11.8119L12.7205 12.0249ZM14.9374 2.03249L13.9698 1.78016L13.9652 1.79795L13.9612 1.8159L14.9374 2.03249ZM13.996 1.0255L14.3421 1.96372L14.3685 1.95397L14.3943 1.94275L13.996 1.0255ZM0.978404 5.82669L0.632338 4.88839L0.620211 4.89304L0.978404 5.82669ZM0.816436 6.85304L1.1025 5.89482L1.0975 5.89336L0.816436 6.85304ZM4.15705 7.85035L3.87099 8.80856L4.29492 8.93512L4.67371 8.70654L4.15705 7.85035ZM11.8909 3.18338L11.3892 2.31836L11.3817 2.32271L11.3743 2.32719L11.8909 3.18338ZM5.47234 9.54476L10.9186 13.3935L12.0728 11.7602L6.62657 7.91143L5.47234 9.54476ZM11.029 13.4612C11.4558 13.6865 12.0658 13.8729 12.6792 13.6084C13.3112 13.3358 13.5875 12.743 13.6976 12.2379L11.7435 11.8119C11.7233 11.9048 11.705 11.9236 11.7184 11.9034C11.7369 11.8756 11.7902 11.8137 11.8871 11.7719C11.9814 11.7312 12.054 11.7367 12.0709 11.7391C12.0816 11.7407 12.0471 11.7371 11.9624 11.6924L11.029 13.4612ZM13.6968 12.2415L15.9137 2.24908L13.9612 1.8159L11.7443 11.8083L13.6968 12.2415ZM15.9051 2.28482C16.0752 1.63229 16.0056 0.882067 15.4539 0.371711C14.9045 -0.13653 14.1639 -0.137633 13.5977 0.108255L14.3943 1.94275C14.4053 1.93801 14.3792 1.95223 14.3196 1.94586C14.2563 1.9391 14.1709 1.90942 14.0957 1.83985C14.0199 1.76969 13.995 1.69685 13.9892 1.66834C13.9846 1.64517 13.9968 1.67673 13.9698 1.78016L15.9051 2.28482ZM13.65 0.0872827L0.632368 4.88847L1.32444 6.76491L14.3421 1.96372L13.65 0.0872827ZM0.620211 4.89304C0.335305 5.00235 0.0585897 5.14524 -0.168815 5.33748C-0.386997 5.52193 -0.653938 5.83496 -0.700915 6.28455C-0.752403 6.77731 -0.514825 7.16159 -0.257668 7.39375C-0.017203 7.61084 0.274657 7.73638 0.535374 7.81273L1.0975 5.89336C0.997502 5.86407 1.01818 5.85111 1.08254 5.90921C1.16359 5.98239 1.32014 6.18721 1.28826 6.4924C1.27458 6.6233 1.22914 6.72061 1.19197 6.77948C1.15615 6.83619 1.12505 6.86258 1.12237 6.86485C1.12136 6.8657 1.17722 6.82148 1.3366 6.76034L0.620211 4.89304ZM0.530373 7.81126L3.87099 8.80856L4.44311 6.89214L1.1025 5.89483L0.530373 7.81126ZM4.67371 8.70654L12.4076 4.03957L11.3743 2.32719L3.64039 6.99416L4.67371 8.70654ZM12.3927 4.0484C12.3953 4.04686 12.3812 4.05608 12.3434 4.06353C12.3243 4.06729 12.2042 4.09091 12.0318 4.03437C11.9412 4.00465 11.7864 3.93557 11.6479 3.77812C11.4935 3.60266 11.4085 3.37066 11.4178 3.13079C11.4261 2.91524 11.5069 2.76302 11.5559 2.68849C11.6066 2.61127 11.6543 2.56896 11.6689 2.55659L12.9632 4.08129C13.0828 3.97979 13.3977 3.68718 13.4163 3.20817C13.4271 2.9281 13.3291 2.66125 13.1495 2.4571C12.9858 2.27096 12.7934 2.17933 12.6553 2.13402C12.3879 2.0463 12.1327 2.06658 11.9568 2.10125C11.762 2.13962 11.5691 2.21402 11.3892 2.31836L12.3927 4.0484Z" fill="#6188FF" mask="url(#path-1-inside-1_0_32)"/>
</svg>
